<?xml version="1.0" standalone="no"?>
<!DOCTYPE svg PUBLIC "-//W3C//DTD SVG 20010904//EN"
 "http://www.w3.org/TR/2001/REC-SVG-20010904/DTD/svg10.dtd">
<svg version="1.0" xmlns="http://www.w3.org/2000/svg"
 width="284.000000pt" height="264.000000pt" viewBox="0 0 284.000000 264.000000"
 preserveAspectRatio="xMidYMid meet">
<metadata>
Created by potrace 1.14, written by Peter Selinger 2001-2017
</metadata>
<g transform="translate(0.000000,264.000000) scale(0.100000,-0.100000)"
fill="#000000" stroke="none">
<path d="M511 2519 c-161 -27 -266 -137 -291 -304 -7 -47 -10 -359 -8 -940 3
-798 5 -874 21 -922 34 -102 123 -189 225 -220 53 -17 129 -18 1022 -18 893 0
969 1 1022 18 104 32 193 121 225 225 17 53 18 127 18 962 0 835 -1 909 -18
962 -31 102 -118 191 -220 225 -48 16 -124 18 -997 19 -531 1 -969 -2 -999 -7z
m1953 -261 c-213 -167 -357 -312 -566 -568 -254 -313 -533 -745 -763 -1177
l-107 -203 -70 0 c-100 0 -122 14 -148 98 -12 37 -29 106 -40 154 -23 105 -67
219 -113 291 -41 63 -183 241 -226 281 -17 17 -31 38 -31 49 0 17 5 19 41 13
60 -10 108 -37 175 -103 90 -87 178 -211 245 -348 62 -127 97 -172 124 -161
15 5 46 51 204 303 107 171 312 456 448 623 197 243 412 445 760 711 70 54
132 98 137 98 5 1 -27 -27 -70 -61z"/>
</g>
</svg>
